<?xml version="1.0" standalone="no"?>
<!DOCTYPE svg PUBLIC "-//W3C//DTD SVG 20010904//EN"
 "http://www.w3.org/TR/2001/REC-SVG-20010904/DTD/svg10.dtd">
<svg version="1.0" xmlns="http://www.w3.org/2000/svg"
 width="current" height="current" viewBox="0 0 512.000000 512.000000"
 preserveAspectRatio="xMidYMid meet">

<g transform="translate(0.000000,512.000000) scale(0.100000,-0.100000)"
fill="#000000" stroke="none">
<path fill="current" d="M1969 4671 c-150 -48 -245 -170 -258 -331 l-6 -75 -625 -5 -625 -5
-67 -26 c-94 -37 -157 -80 -229 -157 -73 -78 -132 -193 -149 -292 -8 -46 -10
-476 -8 -1475 l3 -1410 23 -67 c12 -37 45 -101 73 -143 78 -116 190 -197 335
-242 56 -17 149 -18 2124 -18 1977 0 2068 1 2125 18 194 60 335 192 403 378
l27 74 3 1410 c2 1000 0 1429 -8 1475 -17 99 -76 214 -149 292 -72 77 -135
120 -229 157 l-67 26 -625 5 -625 5 -6 76 c-4 50 -15 96 -32 133 -35 76 -119
157 -194 188 l-58 23 -550 2 c-506 2 -554 1 -606 -16z m1105 -317 c14 -13 16
-50 16 -253 0 -171 -3 -240 -12 -249 -17 -17 -1019 -17 -1036 0 -9 9 -12 78
-12 249 0 203 2 240 16 253 14 14 74 16 514 16 440 0 500 -2 514 -16z m-1362
-492 c4 -63 10 -89 38 -140 40 -75 102 -135 178 -170 l57 -27 575 0 575 0 57
27 c127 59 210 179 217 315 l3 73 592 0 591 0 51 -24 c27 -13 67 -43 87 -66
72 -84 68 19 65 -1525 l-3 -1390 -22 -40 c-28 -54 -100 -119 -149 -136 -58
-21 -4070 -21 -4128 0 -49 17 -121 82 -149 136 l-22 40 -3 1390 c-3 1544 -7
1441 65 1525 20 23 60 53 87 66 l51 24 591 0 591 0 5 -78z"/>
<path d="M1524 3190 c-219 -33 -400 -203 -445 -418 -16 -78 -7 -214 19 -287
80 -219 303 -367 532 -352 273 18 483 228 498 497 5 105 -9 176 -52 266 -99
206 -329 328 -552 294z m179 -342 c116 -64 142 -224 54 -325 -127 -145 -367
-55 -367 137 0 168 167 268 313 188z"/>
<path d="M3090 3079 c-14 -6 -36 -20 -48 -32 -78 -72 -68 -185 21 -251 28 -21
35 -21 672 -21 634 0 644 0 671 21 53 39 69 71 69 134 0 63 -16 95 -69 134
-27 21 -38 21 -659 23 -406 1 -641 -2 -657 -8z"/>
<path d="M3080 2218 c-66 -34 -93 -79 -88 -149 5 -65 32 -109 82 -133 30 -14
103 -16 664 -16 l629 0 33 23 c48 32 72 69 77 119 7 58 -23 118 -74 149 l-38
24 -620 3 -620 2 -45 -22z"/>
<path d="M1155 1913 c-167 -24 -322 -121 -414 -258 -71 -106 -93 -181 -98
-336 -5 -113 -3 -129 16 -166 42 -83 146 -112 224 -64 58 35 71 69 77 201 7
133 22 172 92 237 75 68 73 68 548 68 475 0 473 0 548 -68 70 -65 85 -104 92
-237 6 -132 19 -166 77 -201 77 -48 182 -19 223 62 25 48 27 198 5 304 -42
198 -190 362 -390 432 l-80 28 -445 1 c-245 1 -458 0 -475 -3z"/>
<path d="M3072 1363 c-49 -24 -75 -68 -80 -132 -5 -70 22 -115 88 -149 l45
-22 620 2 620 3 38 24 c51 31 81 91 74 149 -5 50 -29 87 -77 120 l-33 22 -631
0 c-561 0 -635 -2 -664 -17z"/>
</g>
</svg>
